<svg height="496pt" viewBox="-22 0 496 496.008" width="496pt" xmlns="http://www.w3.org/2000/svg" fill="#007bff"><path d="m139.316406 416c-13.230468 0-24 10.769531-24 24s10.769532 24 24 24c13.230469 0 24-10.769531 24-24s-10.769531-24-24-24zm0 32c-4.410156 0-8-3.585938-8-8s3.589844-8 8-8c4.40625 0 8 3.585938 8 8s-3.59375 8-8 8zm0 0"/><path d="m347.316406 416c-13.230468 0-24 10.769531-24 24s10.769532 24 24 24c13.230469 0 24-10.769531 24-24s-10.769531-24-24-24zm0 32c-4.410156 0-8-3.585938-8-8s3.589844-8 8-8c4.40625 0 8 3.585938 8 8s-3.59375 8-8 8zm0 0"/><path  d="m451.316406 416h-53.480468c-7.167969-15.023438-20.808594-26.351562-37.328126-30.367188l-77.664062-100.96875c.183594-1.542968.472656-3.0625.472656-4.664062 0-1.769531-.296875-3.449219-.519531-5.152344l37.855469-90.847656h24.207031l48.753906-130.007812c1.125-3.023438 1.703125-6.175782 1.703125-9.398438v-1.816406c0-14.769532-12.007812-26.777344-26.769531-26.777344-11.285156 0-21.421875 7.144531-25.214844 17.777344l-33.65625 94.222656h-23.640625l-48.238281 112.558594c-19.425781 2.714844-34.480469 19.273437-34.480469 39.441406 0 1.601562.289063 3.121094.472656 4.671875l-77.664062 100.96875c-16.511719 4.007813-30.152344 15.335937-37.328125 30.367187h-53.480469v48h53.480469c9.007813 18.886719 28.238281 32 50.519531 32s41.511719-13.113281 50.519532-32h106.960937c9.007813 18.886719 28.238281 32 50.519531 32s41.511719-13.113281 50.519532-32h53.480468zm-111.777344-31.390625c-7.390624 1.03125-14.320312 3.503906-20.503906 7.144531l-51.71875-66.507812v-13.453125c3.472656-2.632813 6.589844-5.714844 9.046875-9.3125zm-159.4375 17.132813 39.214844-50.421876v.679688c0 13.230469 10.769532 24 24 24 13.230469 0 24-10.769531 24-24v-.679688l39.214844 50.421876c-3.941406 4.203124-7.230469 9-9.734375 14.257812h-106.960937c-2.511719-5.257812-5.800782-10.054688-9.734376-14.257812zm63.214844-81.742188c2.734375 0 5.414063-.28125 8-.808594v32.808594c0 4.414062-3.59375 8-8 8-4.410156 0-8-3.585938-8-8v-32.808594c2.582032.527344 5.261719.808594 8 .808594zm53.273438-176h24.359375l37.445312-104.847656c1.539063-4.28125 5.609375-7.152344 10.152344-7.152344 5.9375 0 10.769531 4.832031 10.769531 10.777344v1.824218c0 1.292969-.230468 2.566407-.6875 3.78125l-44.855468 119.617188h-23.792969l-36.066407 86.550781c-4.980468-5.984375-11.613281-10.4375-19.261718-12.71875zm-53.273438 112c13.230469 0 24 10.769531 24 24s-10.769531 24-24 24c-13.230468 0-24-10.769531-24-24s10.769532-24 24-24zm-24 55.792969v13.453125l-51.71875 66.496094c-6.1875-3.636719-13.105468-6.109376-20.503906-7.140626l63.175781-82.128906c2.453125 3.617188 5.574219 6.695313 9.046875 9.320313zm-168 136.207031v-16h32.640625c-.378906 2.625-.640625 5.28125-.640625 8s.261719 5.375.640625 8zm88 32c-22.054687 0-40-17.945312-40-40s17.945313-40 40-40c22.054688 0 40 17.945312 40 40s-17.945312 40-40 40zm55.359375-32c.375-2.625.640625-5.28125.640625-8s-.265625-5.375-.640625-8h97.28125c-.378906 2.625-.640625 5.28125-.640625 8s.261719 5.375.640625 8zm152.640625 32c-22.054687 0-40-17.945312-40-40s17.945313-40 40-40c22.054688 0 40 17.945312 40 40s-17.945312 40-40 40zm88-32h-32.640625c.375-2.625.640625-5.28125.640625-8s-.265625-5.375-.640625-8h32.640625zm0 0"/><path d="m235.316406 272h16v16h-16zm0 0"/><path d="m211.316406 128c35.289063 0 64-28.710938 64-64s-28.710937-64-64-64c-35.289062 0-64 28.710938-64 64s28.710938 64 64 64zm0-112c26.472656 0 48 21.527344 48 48s-21.527344 48-48 48-48-21.527344-48-48 21.527344-48 48-48zm0 0"/><path d="m211.316406 48v-16c-17.648437 0-32 14.351562-32 32h16c0-8.824219 7.175782-16 16-16zm0 0"/><path d="m123.316406 136h16v16h-16zm0 0"/><path d="m91.316406 136h16v16h-16zm0 0"/><path d="m30.628906 152h44.6875v-16h-44.6875l10.34375-10.34375-11.3125-11.3125-29.65624975 29.65625 29.65624975 29.65625 11.3125-11.3125zm0 0"/><path d="m203.316406 192h16v16h-16zm0 0"/><path d="m171.316406 192h16v16h-16zm0 0"/><path d="m120.972656 218.34375-10.34375-10.34375h44.6875v-16h-44.6875l10.34375-10.34375-11.3125-11.3125-29.65625 29.65625 29.65625 29.65625zm0 0"/></svg>
